<mxfile host="app.diagrams.net" modified="2023-11-20T10:53:42.577Z" agent="Mozilla/5.0 (Windows NT 10.0; Win64; x64) AppleWebKit/537.36 (KHTML, like Gecko) Chrome/116.0.0.0 Safari/537.36 OPR/102.0.0.0" version="22.1.3" etag="-YWKhG8pArmAsBkcb_A3" type="github">
  <diagram name="PÃ¡gina-1" id="yagtSaSBgyNqGg5Hv03g">
    <mxGraphModel>
      <root>
        <mxCell id="0" />
        <mxCell id="1" parent="0" />
      </root>
    </mxGraphModel>
  </diagram>
</mxfile>
